<svg width="46" height="46" viewBox="0 0 46 46" fill="none" xmlns="http://www.w3.org/2000/svg">
<path d="M35.9375 44.5625V1.4375H10.0625V44.5625" fill="#89A8F5"/>
<path d="M39.5098 31.7752C40.3365 31.3042 40.9842 30.573 41.3521 29.6956C41.72 28.8181 41.7874 27.8437 41.5437 26.9239C41.3001 26.0042 40.7592 25.1908 40.0052 24.6105C39.2512 24.0302 38.3265 23.7156 37.375 23.7156C36.4235 23.7156 35.4988 24.0302 34.7448 24.6105C33.9908 25.1908 33.4499 26.0042 33.2063 26.9239C32.9626 27.8437 33.03 28.8181 33.3979 29.6956C33.7658 30.573 34.4135 31.3042 35.2402 31.7752C32.3131 32.2068 30.1875 33.5584 30.1875 35.6838V44.5625H44.5625V35.6838C44.5625 33.5584 42.4369 32.2068 39.5098 31.7752Z" fill="#F4CFCB"/>
<path d="M25.1348 31.7752C25.9615 31.3042 26.6092 30.573 26.9771 29.6956C27.345 28.8181 27.4124 27.8437 27.1687 26.9239C26.9251 26.0042 26.3842 25.1908 25.6302 24.6105C24.8762 24.0302 23.9515 23.7156 23 23.7156C22.0485 23.7156 21.1238 24.0302 20.3698 24.6105C19.6158 25.1908 19.0749 26.0042 18.8313 26.9239C18.5876 27.8437 18.655 28.8181 19.0229 29.6956C19.3908 30.573 20.0385 31.3042 20.8652 31.7752C17.9381 32.2068 15.8125 33.5584 15.8125 35.6838V44.5625H30.1875V35.6838C30.1875 33.5584 28.0619 32.2068 25.1348 31.7752Z" fill="#F47673"/>
<path d="M10.7598 31.7752C11.5865 31.3042 12.2342 30.573 12.6021 29.6956C12.97 28.8181 13.0374 27.8437 12.7937 26.9239C12.5501 26.0042 12.0092 25.1908 11.2552 24.6105C10.5012 24.0302 9.57645 23.7156 8.625 23.7156C7.67355 23.7156 6.74881 24.0302 5.9948 24.6105C5.2408 25.1908 4.69987 26.0042 4.45626 26.9239C4.21264 27.8437 4.28003 28.8181 4.64792 29.6956C5.01581 30.573 5.66355 31.3042 6.49025 31.7752C3.56313 32.2068 1.4375 33.5584 1.4375 35.6838V44.5625H15.8125V35.6838C15.8125 33.5584 13.6869 32.2068 10.7598 31.7752V31.7752Z" fill="#F4938C"/>
<path d="M29.4688 5.03125H30.9062V6.46875H29.4688V5.03125Z" fill="#A6E0F4"/>
<path d="M29.4688 7.90625H30.9062V9.34375H29.4688V7.90625Z" fill="#A6E0F4"/>
<path d="M29.4688 10.7812H30.9062V12.2188H29.4688V10.7812Z" fill="#A6E0F4"/>
<path d="M29.4688 13.6562H30.9062V15.0938H29.4688V13.6562Z" fill="#A6E0F4"/>
<path d="M15.0938 5.03125H16.5312V6.46875H15.0938V5.03125Z" fill="#A6E0F4"/>
<path d="M15.0938 7.90625H16.5312V9.34375H15.0938V7.90625Z" fill="#A6E0F4"/>
<path d="M15.0938 10.7812H16.5312V12.2188H15.0938V10.7812Z" fill="#A6E0F4"/>
<path d="M15.0938 13.6562H16.5312V15.0938H15.0938V13.6562Z" fill="#A6E0F4"/>
<path d="M29.4688 16.5312H30.9062V17.9688H29.4688V16.5312Z" fill="#A6E0F4"/>
<path d="M32.3438 5.03125H33.7812V6.46875H32.3438V5.03125Z" fill="#A6E0F4"/>
<path d="M32.3438 7.90625H33.7812V9.34375H32.3438V7.90625Z" fill="#A6E0F4"/>
<path d="M32.3438 10.7812H33.7812V12.2188H32.3438V10.7812Z" fill="#A6E0F4"/>
<path d="M32.3438 13.6562H33.7812V15.0938H32.3438V13.6562Z" fill="#A6E0F4"/>
<path d="M32.3438 16.5312H33.7812V17.9688H32.3438V16.5312Z" fill="#A6E0F4"/>
<path d="M26.5938 16.5312H28.0312V17.9688H26.5938V16.5312Z" fill="#A6E0F4"/>
<path d="M23.7188 16.5312H25.1562V17.9688H23.7188V16.5312Z" fill="#A6E0F4"/>
<path d="M20.8438 16.5312H22.2812V17.9688H20.8438V16.5312Z" fill="#A6E0F4"/>
<path d="M17.9688 16.5312H19.4062V17.9688H17.9688V16.5312Z" fill="#A6E0F4"/>
<path d="M15.0938 16.5312H16.5312V17.9688H15.0938V16.5312Z" fill="#A6E0F4"/>
<path d="M12.2188 5.03125H13.6562V6.46875H12.2188V5.03125Z" fill="#A6E0F4"/>
<path d="M12.2188 7.90625H13.6562V9.34375H12.2188V7.90625Z" fill="#A6E0F4"/>
<path d="M12.2188 10.7812H13.6562V12.2188H12.2188V10.7812Z" fill="#A6E0F4"/>
<path d="M12.2188 13.6562H13.6562V15.0938H12.2188V13.6562Z" fill="#A6E0F4"/>
<path d="M12.2188 16.5312H13.6562V17.9688H12.2188V16.5312Z" fill="#A6E0F4"/>
<path d="M29.4688 19.4062H30.9062V20.8438H29.4688V19.4062Z" fill="#A6E0F4"/>
<path d="M32.3438 19.4062H33.7812V20.8438H32.3438V19.4062Z" fill="#A6E0F4"/>
<path d="M26.5938 19.4062H28.0312V20.8438H26.5938V19.4062Z" fill="#A6E0F4"/>
<path d="M23.7188 19.4062H25.1562V20.8438H23.7188V19.4062Z" fill="#A6E0F4"/>
<path d="M20.8438 19.4062H22.2812V20.8438H20.8438V19.4062Z" fill="#A6E0F4"/>
<path d="M17.9688 19.4062H19.4062V20.8438H17.9688V19.4062Z" fill="#A6E0F4"/>
<path d="M15.0938 19.4062H16.5312V20.8438H15.0938V19.4062Z" fill="#A6E0F4"/>
<path d="M12.2188 19.4062H13.6562V20.8438H12.2188V19.4062Z" fill="#A6E0F4"/>
</svg>
