<svg width="46" height="46" viewBox="0 0 46 46" fill="none" xmlns="http://www.w3.org/2000/svg">
<path d="M7.11854 40.25H25.875C26.4469 40.25 26.9953 40.0228 27.3997 39.6184C27.8041 39.2141 28.0312 38.6656 28.0312 38.0938V20.125H4.11844C3.59803 20.125 3.09894 20.3317 2.73096 20.6997C2.36298 21.0677 2.15625 21.5668 2.15625 22.0872V35.2877C2.15625 36.6038 2.67906 37.866 3.60967 38.7966C4.54028 39.7272 5.80246 40.25 7.11854 40.25V40.25Z" fill="#9E593C"/>
<path d="M15.0938 32.3438L17.25 34.5L19.4062 32.3438L21.5625 34.5L23.7188 32.3438L25.875 34.5L28.0312 32.3438L30.1875 34.5L32.3438 32.3438V8.625H17.9688C17.2063 8.625 16.475 8.9279 15.9358 9.46707C15.3967 10.0062 15.0938 10.7375 15.0938 11.5V32.3438Z" fill="#6E8BEB"/>
<path d="M2.15625 37.9122C2.15625 38.5729 2.3838 39.2134 2.80062 39.726C3.21744 40.2386 3.79809 40.5921 4.44488 40.7268L19.209 43.8027C19.3402 43.83 19.4738 43.8438 19.6077 43.8437C19.8644 43.8437 20.1186 43.7932 20.3558 43.695C20.5929 43.5967 20.8084 43.4527 20.99 43.2712C21.1715 43.0897 21.3155 42.8742 21.4137 42.637C21.5119 42.3999 21.5625 42.1457 21.5625 41.889V29.704C21.5625 29.0323 21.3273 28.3818 20.8978 27.8654C20.4682 27.349 19.8715 26.9993 19.211 26.877L3.76087 24.0159C3.31018 23.9324 2.90295 23.6938 2.60984 23.3414C2.31673 22.9891 2.15625 22.5452 2.15625 22.0868V37.9122Z" fill="#B36F42"/>
<path d="M29.4688 24.4375H23.7188C22.9563 24.4375 22.225 24.1346 21.6858 23.5954C21.1467 23.0563 20.8438 22.325 20.8438 21.5625V11.5C20.8438 10.7375 20.5408 10.0062 20.0017 9.46707C19.4625 8.9279 18.7312 8.625 17.9688 8.625H29.4688V24.4375Z" fill="#5771E5"/>
<path d="M40.9688 24.4375C41.7312 24.4375 42.4625 24.1346 43.0017 23.5954C43.5408 23.0563 43.8438 22.325 43.8438 21.5625V2.15625L41.6875 4.3125L39.5312 2.15625L37.375 4.3125L35.2188 2.15625L33.0625 4.3125L30.9062 2.15625L28.75 4.3125L26.5938 2.15625V21.5625C26.5938 22.325 26.2908 23.0563 25.7517 23.5954C25.2125 24.1346 24.4812 24.4375 23.7188 24.4375H40.9688Z" fill="#89A8F5"/>
<path d="M35.2188 9.34375C36.0127 9.34375 36.6562 8.70016 36.6562 7.90625C36.6562 7.11234 36.0127 6.46875 35.2188 6.46875C34.4248 6.46875 33.7812 7.11234 33.7812 7.90625C33.7812 8.70016 34.4248 9.34375 35.2188 9.34375Z" fill="#A2C1FA"/>
<path d="M30.9062 11.5H34.5V12.9375H30.9062V11.5Z" fill="#6E8BEB"/>
<path d="M35.9375 11.5H39.5312V12.9375H35.9375V11.5Z" fill="#6E8BEB"/>
<path d="M32.3438 14.375H38.0938V15.8125H32.3438V14.375Z" fill="#6E8BEB"/>
<path d="M28.75 17.25H30.9062V18.6875H28.75V17.25Z" fill="#6E8BEB"/>
<path d="M28.75 20.125H33.0625V21.5625H28.75V20.125Z" fill="#6E8BEB"/>
<path d="M32.3438 17.25H33.7812V18.6875H32.3438V17.25Z" fill="#6E8BEB"/>
<path d="M38.0938 17.25H41.6875V18.6875H38.0938V17.25Z" fill="#6E8BEB"/>
<path d="M39.5312 20.125H41.6875V21.5625H39.5312V20.125Z" fill="#6E8BEB"/>
</svg>
