<svg width="46" height="46" viewBox="0 0 46 46" fill="none" xmlns="http://www.w3.org/2000/svg">
<path d="M10.0748 43.4534L6.0399 41.1905C5.38485 40.8231 5.15647 39.9915 5.53201 39.3413L13.6966 25.2047L20.083 28.7864L11.9018 42.9519C11.5329 43.5909 10.7184 43.8144 10.0748 43.4534V43.4534Z" fill="#667197"/>
<path d="M19.4471 29.8946L34.3349 38.7392C35.2335 39.273 36.3718 38.6256 36.3718 37.5807V3.72376C36.3718 2.67079 35.2179 2.02455 34.3195 2.57448L19.4471 11.6798L18.4821 20.6337L19.4471 29.8946Z" fill="#F1F1FA"/>
<path d="M18.5054 20.8582L19.447 29.8946L34.3348 38.7392C35.2334 39.273 36.3717 38.6256 36.3717 37.5807V20.8582H18.5054Z" fill="#F1F1FA"/>
<path d="M8.04506 26.6718H2.55938C1.14587 26.6718 0 25.5259 0 24.1124V17.155C0 15.7414 1.14587 14.5956 2.55938 14.5956H8.04506V26.6718Z" fill="#667197"/>
<path d="M0 20.8582V24.1124C0 25.5259 1.14623 26.6718 2.56019 26.6718H8.04497V20.8582H0Z" fill="#667197"/>
<path d="M19.447 29.8946H11.6388C9.10795 29.7412 7.05627 27.6901 7.05627 25.16V16.1074C7.05627 13.5773 9.10795 11.5263 11.6388 11.6799H19.447V29.8946Z" fill="#F3705A"/>
<path d="M7.05627 20.8582V25.16C7.05627 27.6901 9.10795 29.7411 11.6388 29.8946H19.447V20.8582H7.05627Z" fill="#F3705A"/>
<path d="M42.2922 31.6512C41.9472 31.6512 41.6022 31.5195 41.3389 31.2564L38.6195 28.5378C38.093 28.0116 38.093 27.1583 38.6195 26.632C39.1459 26.1057 39.9996 26.1057 40.526 26.632L43.2454 29.3505C43.7719 29.8767 43.7719 30.7301 43.2454 31.2564C42.9822 31.5195 42.6372 31.6512 42.2922 31.6512Z" fill="#FFD15C"/>
<path d="M39.5717 15.4793C39.2266 15.4793 38.8817 15.3477 38.6184 15.0846C38.092 14.5584 38.092 13.705 38.6184 13.1787L41.3379 10.4602C41.8644 9.93385 42.7179 9.93385 43.2444 10.4602C43.7708 10.9864 43.7708 11.8398 43.2444 12.366L40.5249 15.0846C40.2618 15.3477 39.9167 15.4793 39.5717 15.4793V15.4793Z" fill="#FFD15C"/>
<path d="M44.6519 22.2059H40.806C40.0615 22.2059 39.4579 21.6025 39.4579 20.8582C39.4579 20.1139 40.0615 19.5106 40.806 19.5106H44.6519C45.3965 19.5106 46 20.1139 46 20.8582C46 21.6025 45.3965 22.2059 44.6519 22.2059Z" fill="#FFD15C"/>
<path d="M40.806 22.2059H44.6519C45.3965 22.2059 46 21.6025 46 20.8582H39.4579C39.4579 21.6025 40.0615 22.2059 40.806 22.2059Z" fill="#FFD15C"/>
</svg>
