<svg width="46" height="46" viewBox="0 0 46 46" fill="none" xmlns="http://www.w3.org/2000/svg">
<path d="M19.3546 0.436234L16.7523 6.94148H29.2476L26.6453 0.436234C26.54 0.172668 26.2845 0 26.001 0H19.999C19.7154 0 19.4599 0.172668 19.3546 0.436234V0.436234Z" fill="#809399"/>
<path d="M4.46763 9.62275L7.22752 16.0627L16.0627 7.2275L9.62277 4.46762C9.36201 4.35566 9.05914 4.41392 8.85839 4.61467L4.61468 8.85838C4.41394 9.05912 4.35568 9.36199 4.46763 9.62275Z" fill="#809399"/>
<path d="M0.436234 26.6453L6.94148 29.2477V16.7523L0.436234 19.3547C0.172668 19.4599 0 19.7154 0 19.999V26.001C0 26.2846 0.172668 26.5401 0.436234 26.6453V26.6453Z" fill="#809399"/>
<path d="M9.62277 41.5324L16.0627 38.7725L7.22752 29.9373L4.46763 36.3772C4.35568 36.638 4.41394 36.9409 4.61468 37.1416L8.85839 41.3853C9.05914 41.5861 9.36201 41.6443 9.62277 41.5324Z" fill="#809399"/>
<path d="M26.6453 45.5638L29.2476 39.0585H16.7523L19.3546 45.5638C19.4599 45.827 19.7154 46 19.999 46H26.001C26.2845 46 26.54 45.8273 26.6453 45.5638V45.5638Z" fill="#809399"/>
<path d="M41.5324 36.3772L38.7725 29.9373L29.9373 38.7725L36.3772 41.5324C36.638 41.6443 36.9408 41.5861 37.1416 41.3853L41.3853 37.1416C41.586 36.9409 41.6443 36.638 41.5324 36.3772V36.3772Z" fill="#809399"/>
<path d="M45.5638 19.3547L39.0586 16.7523V29.2477L45.5638 26.6453C45.8271 26.5401 46.0001 26.2846 46.0001 26.001V19.999C46.0001 19.7154 45.8274 19.4599 45.5638 19.3547V19.3547Z" fill="#809399"/>
<path d="M36.3772 4.46762L29.9373 7.2275L38.7725 16.0627L41.5324 9.62275C41.6443 9.36199 41.586 9.05912 41.3853 8.85838L37.1416 4.61467C36.9408 4.41392 36.638 4.35566 36.3772 4.46762V4.46762Z" fill="#809399"/>
<path d="M23 3.56322C12.2823 3.56322 3.56323 12.2833 3.56323 23C3.56323 33.7177 12.2823 42.4368 23 42.4368C33.7177 42.4368 42.4368 33.7177 42.4368 23C42.4368 12.2833 33.7177 3.56322 23 3.56322Z" fill="#9CB5BB"/>
<path d="M23 8.4225C14.9491 8.4225 8.42249 14.9492 8.42249 23C8.42249 31.0508 14.9491 37.5775 23 37.5775C31.0508 37.5775 37.5775 31.0508 37.5775 23C37.5775 14.9492 31.0508 8.4225 23 8.4225Z" fill="#809399"/>
<path d="M34.8007 23C34.8007 29.5175 29.5175 34.8008 23 34.8008C16.4825 34.8008 11.1992 29.5175 11.1992 23C11.1992 16.4825 16.4825 11.1992 23 11.1992C29.5175 11.1992 34.8007 16.4825 34.8007 23Z" fill="white"/>
<path d="M15.2786 18.5422C15.2186 18.6461 15.1856 18.7651 15.1856 18.8893L15.1846 27.1114C15.1846 27.3595 15.3169 27.5891 15.5317 27.7129L22.6528 31.8236C22.7602 31.8858 22.8799 31.9166 22.9996 31.9166L25.7763 18.5422H15.2786Z" fill="#FFC43B"/>
<path d="M30.722 18.5415H23.8732L28.0383 29.1153L30.4679 27.7126C30.6827 27.5883 30.815 27.3595 30.815 27.1114V18.8886C30.815 18.7647 30.782 18.6454 30.722 18.5415V18.5415Z" fill="#FF852B"/>
<path d="M22.9996 20.091V31.9166C23.1197 31.9166 23.2397 31.8858 23.3471 31.8236L28.0383 29.1153V20.091H22.9996Z" fill="#FFA433"/>
<path d="M22.9996 22.8926C23.1197 22.8926 23.2397 22.8617 23.3471 22.7996L30.722 18.5415C30.662 18.4376 30.5753 18.3495 30.4679 18.2874L23.3474 14.176C23.1326 14.0521 22.868 14.0521 22.6532 14.176L15.5328 18.2881C15.4254 18.3499 15.3387 18.4383 15.2787 18.5422L22.6532 22.7996C22.7603 22.8614 22.88 22.8926 22.9996 22.8926V22.8926Z" fill="#FFD87C"/>
</svg>
