<svg width="80" height="80" viewBox="0 0 80 80" fill="none" xmlns="http://www.w3.org/2000/svg">
<g clip-path="url(#clip0)">
<path d="M46.1667 4V28.6667C46.1667 30.8334 44.3334 32.6667 42.1667 32.6667H21L5.33328 40.8333V32.6666H4C1.83328 32.6666 0 30.8333 0 28.6666V4C0 1.83328 1.83328 0 4 0H42.3333C44.5 0 46.1667 1.83328 46.1667 4Z" fill="#F3705A"/>
<path d="M10.8333 20.6666C13.2265 20.6666 15.1666 18.7265 15.1666 16.3333C15.1666 13.9401 13.2265 12 10.8333 12C8.44008 12 6.5 13.9401 6.5 16.3333C6.5 18.7265 8.44008 20.6666 10.8333 20.6666Z" fill="white"/>
<path d="M23.1668 20.6666C25.56 20.6666 27.5001 18.7265 27.5001 16.3333C27.5001 13.9401 25.56 12 23.1668 12C20.7736 12 18.8335 13.9401 18.8335 16.3333C18.8335 18.7265 20.7736 20.6666 23.1668 20.6666Z" fill="white"/>
<path d="M35.5 20.6666C37.8932 20.6666 39.8333 18.7265 39.8333 16.3333C39.8333 13.9401 37.8932 12 35.5 12C33.1068 12 31.1667 13.9401 31.1667 16.3333C31.1667 18.7265 33.1068 20.6666 35.5 20.6666Z" fill="white"/>
<path d="M33.8334 13.8333V38.3333C33.8334 40.5 35.6667 42.3333 37.8334 42.3333H59.1667L74.8334 50.5V42.3333H76.0001C78.1668 42.3333 80.0001 40.5 80.0001 38.3333V13.8333C80.0001 11.6665 78.1668 9.83325 76.0001 9.83325H37.6668C35.5001 9.83325 33.8334 11.6667 33.8334 13.8333Z" fill="#FFD15C"/>
<path d="M69.1668 30.5001C71.56 30.5001 73.5001 28.56 73.5001 26.1668C73.5001 23.7736 71.56 21.8335 69.1668 21.8335C66.7736 21.8335 64.8335 23.7736 64.8335 26.1668C64.8335 28.56 66.7736 30.5001 69.1668 30.5001Z" fill="white"/>
<path d="M56.8333 30.5001C59.2265 30.5001 61.1666 28.56 61.1666 26.1668C61.1666 23.7736 59.2265 21.8335 56.8333 21.8335C54.4401 21.8335 52.5 23.7736 52.5 26.1668C52.5 28.56 54.4401 30.5001 56.8333 30.5001Z" fill="white"/>
<path d="M44.5 30.5001C46.8932 30.5001 48.8333 28.56 48.8333 26.1668C48.8333 23.7736 46.8932 21.8335 44.5 21.8335C42.1068 21.8335 40.1667 23.7736 40.1667 26.1668C40.1667 28.56 42.1068 30.5001 44.5 30.5001Z" fill="white"/>
<path d="M58 43.3333V68C58 70.1667 56.1667 72 54 72H40.8333L34.8332 80L28.8333 71.8333H15.8333C13.6665 71.8333 11.8333 70 11.8333 67.8333V43.3333C11.8333 41.1665 13.6665 39.3333 15.8333 39.3333H54.1665C56.3332 39.3333 58 41.1667 58 43.3333Z" fill="#66C6B9"/>
<path d="M47.1668 60.0001C49.56 60.0001 51.5001 58.06 51.5001 55.6668C51.5001 53.2736 49.56 51.3335 47.1668 51.3335C44.7736 51.3335 42.8335 53.2736 42.8335 55.6668C42.8335 58.06 44.7736 60.0001 47.1668 60.0001Z" fill="white"/>
<path d="M35 60.0001C37.3932 60.0001 39.3333 58.06 39.3333 55.6668C39.3333 53.2736 37.3932 51.3335 35 51.3335C32.6068 51.3335 30.6667 53.2736 30.6667 55.6668C30.6667 58.06 32.6068 60.0001 35 60.0001Z" fill="white"/>
<path d="M22.6668 60.0001C25.06 60.0001 27.0001 58.06 27.0001 55.6668C27.0001 53.2736 25.06 51.3335 22.6668 51.3335C20.2736 51.3335 18.3335 53.2736 18.3335 55.6668C18.3335 58.06 20.2736 60.0001 22.6668 60.0001Z" fill="white"/>
</g>
<defs>
<clipPath id="clip0">
<rect width="80" height="80" fill="white"/>
</clipPath>
</defs>
</svg>
